<svg width="36" height="36" viewBox="0 0 36 36" fill="none" xmlns="http://www.w3.org/2000/svg">
<rect x="0.5" y="0.5" width="35" height="35" stroke="#F7F7F7"/>
<g clip-path="url(#clip0_62_59)">
<path d="M9.99217 15.7933C9.94736 16.0266 10.1004 16.2523 10.3337 16.2971C10.3608 16.3024 10.3882 16.3052 10.4157 16.3048C10.622 16.3048 10.7992 16.1583 10.8379 15.9556C11.3967 13.0771 13.8246 10.9358 16.7503 10.7416V11.6027C14.3725 11.7852 12.3709 13.4542 11.7645 15.761C11.7043 15.9911 11.842 16.2261 12.0721 16.2862C12.1076 16.2959 12.1444 16.3008 12.1815 16.3008C12.3773 16.3008 12.5481 16.1679 12.5973 15.9786C13.1044 14.0501 14.7645 12.6459 16.7503 12.4655V12.8753C16.7503 13.113 16.9433 13.306 17.1811 13.306C17.4189 13.306 17.6119 13.113 17.6119 12.8753V9.43076C17.6119 9.19298 17.4189 9 17.1811 9C16.9433 9 16.7503 9.19298 16.7503 9.43076V9.8805C13.4112 10.0759 10.6296 12.5099 9.99217 15.7933Z" fill="#EC1F27"/>
<path d="M24.3729 18.5688C24.4206 18.3359 24.2704 18.1082 24.0374 18.0605C23.8045 18.0129 23.5768 18.1631 23.5292 18.396C23.5284 18.3993 23.528 18.4029 23.5272 18.4061C22.9688 21.2862 20.5393 23.4283 17.6119 23.6217V22.7606C19.9991 22.5785 22.0056 20.8974 22.603 18.5793C22.6676 18.3504 22.5344 18.1126 22.3051 18.048C22.0762 17.9834 21.8384 18.1167 21.7738 18.346C21.7722 18.352 21.7706 18.3581 21.769 18.3641C21.27 20.3028 19.6055 21.7178 17.6115 21.8978V21.4881C17.6115 21.2503 17.4186 21.0573 17.1808 21.0573C16.943 21.0573 16.75 21.2503 16.75 21.4881V24.933C16.75 25.1708 16.943 25.3637 17.1808 25.3637C17.4186 25.3637 17.6115 25.1708 17.6115 24.933V24.4832C20.9523 24.2886 23.7355 21.8534 24.3725 18.5684L24.3729 18.5688Z" fill="#EC1F27"/>
<path d="M18.6024 11.7654C18.3723 11.7053 18.1369 11.843 18.0767 12.0731C18.0166 12.3032 18.1543 12.5386 18.3844 12.5987C20.3125 13.1058 21.717 14.7659 21.8975 16.7513H21.4877C21.2499 16.7513 21.057 16.9443 21.057 17.1821C21.057 17.4199 21.2499 17.6128 21.4877 17.6128H24.9326C25.1704 17.6128 25.3634 17.4199 25.3634 17.1821C25.3634 16.9443 25.1704 16.7513 24.9326 16.7513H24.4829C24.2871 13.4138 21.8555 10.6326 18.5737 9.99395C18.3416 9.94187 18.1115 10.0876 18.0594 10.3197C18.0073 10.5519 18.153 10.782 18.3852 10.8341C18.3937 10.8361 18.4025 10.8377 18.411 10.8389C21.2875 11.4001 23.4264 13.8268 23.6218 16.7509H22.7606C22.5782 14.373 20.9092 12.3714 18.6024 11.765V11.7654Z" fill="#EC1F27"/>
<path d="M16.0081 21.7724C14.0646 21.277 12.6451 19.6101 12.4659 17.6125H12.8757C13.1134 17.6125 13.3064 17.4195 13.3064 17.1817C13.3064 16.944 13.1134 16.751 12.8757 16.751H9.43076C9.19298 16.751 9 16.944 9 17.1817C9 17.4195 9.19298 17.6125 9.43076 17.6125H9.8805C10.0763 20.9557 12.5155 23.7401 15.8042 24.3735C15.8312 24.3783 15.8583 24.3808 15.8857 24.3808C16.1235 24.38 16.3157 24.1866 16.3153 23.9488C16.3149 23.7429 16.1683 23.5661 15.9661 23.5273C13.0828 22.9722 10.9366 20.5423 10.742 17.6125H11.6031C11.784 20.0049 13.4711 22.015 15.7957 22.6077C16.0258 22.6678 16.2612 22.5297 16.321 22.2996C16.3811 22.0695 16.243 21.8341 16.0129 21.7744C16.0113 21.7744 16.0097 21.7736 16.0085 21.7732V21.7724H16.0081Z" fill="#EC1F27"/>
<path d="M19.0948 20.5893C19.3326 20.5893 19.5256 20.3963 19.5256 20.1585V19.7984C19.5228 18.9328 19.025 18.1456 18.2446 17.7717C19.1546 17.1851 19.417 15.9716 18.83 15.0616C18.2434 14.1516 17.0298 13.8892 16.1199 14.4762C15.2099 15.0632 14.9475 16.2764 15.5345 17.1863C15.6859 17.4209 15.8853 17.6207 16.1199 17.7717C15.3391 18.1452 14.8413 18.9328 14.8389 19.7984V20.1585C14.8389 20.3963 15.0318 20.5893 15.2696 20.5893C15.5074 20.5893 15.7004 20.3963 15.7004 20.1585V19.7984C15.7012 19.0277 16.3257 18.4031 17.0964 18.4019H17.2688C18.0395 18.4027 18.6645 19.0277 18.6653 19.7984V20.1585C18.6653 20.3963 18.8578 20.5889 19.0956 20.5893H19.0948ZM17.182 15.0289C17.7896 15.0289 18.2821 15.521 18.2821 16.1282C18.2821 16.7358 17.79 17.2283 17.1828 17.2283C16.5752 17.2283 16.0827 16.7362 16.0827 16.129V16.1282C16.0835 15.5214 16.5752 15.0297 17.182 15.0289Z" fill="#EC1F27"/>
<path d="M27.6058 25.7052L23.9453 22.0448C23.7742 21.8796 23.5016 21.8841 23.3365 22.0552C23.1754 22.222 23.1754 22.4868 23.3365 22.6536L26.997 26.314C27.1855 26.5026 27.1855 26.8086 26.997 26.9971C26.8085 27.1856 26.5025 27.1856 26.3139 26.9971L22.6534 23.3366C22.4823 23.1715 22.2098 23.176 22.0446 23.3471C21.8836 23.5139 21.8836 23.7787 22.0446 23.9454L25.7051 27.6059C26.2299 28.1307 27.081 28.1307 27.6058 27.6059C28.1306 27.0811 28.1306 26.2301 27.6058 25.7052Z" fill="#EC1F27"/>
<path d="M9.43076 11.1615C9.66855 11.1615 9.86153 10.9685 9.86153 10.7307V9.86112H10.7335C10.9713 9.86112 11.1643 9.66815 11.1643 9.43036C11.1643 9.19257 10.9709 9 10.7331 9H9.43076C9.19298 9 9 9.19298 9 9.43076V10.7307C9 10.9685 9.19298 11.1615 9.43076 11.1615Z" fill="#EC1F27"/>
<path d="M10.7301 24.5025H9.86055V23.6305C9.86055 23.3927 9.66757 23.1997 9.42979 23.1997C9.192 23.1997 8.99902 23.3927 8.99902 23.6305V24.9333C8.99902 25.171 9.192 25.364 9.42979 25.364H10.7297C10.9675 25.364 11.1605 25.171 11.1605 24.9333C11.1605 24.6955 10.9675 24.5025 10.7297 24.5025H10.7301Z" fill="#EC1F27"/>
<path d="M23.6325 9.86112H24.5021V10.7331C24.5021 10.9709 24.6951 11.1639 24.9329 11.1639C25.1707 11.1639 25.3636 10.9709 25.3636 10.7331V9.43076C25.3636 9.19298 25.1707 9 24.9329 9H23.6329C23.3951 9 23.2021 9.19298 23.2021 9.43076C23.2021 9.66855 23.3951 9.86153 23.6329 9.86153L23.6325 9.86112Z" fill="#EC1F27"/>
</g>
<defs>
<clipPath id="clip0_62_59">
<rect width="19" height="19" fill="white" transform="translate(9 9)"/>
</clipPath>
</defs>
</svg>
