<svg xmlns="http://www.w3.org/2000/svg" width="36" height="36" fill="none" xmlns:v="https://vecta.io/nano"><path stroke="#f7f7f7" d="M.5.5h35v35H.5z"/><g clip-path="url(#A)" fill="#038eb0"><path d="M15.667 19.251c-1.657 0-3.004-1.404-3.004-3.13 0-.474.099-.929.295-1.354.067-.146.235-.207.375-.137s.199.245.132.391a2.61 2.61 0 0 0-.239 1.1c0 1.403 1.096 2.544 2.442 2.544s2.442-1.141 2.442-2.544-1.096-2.544-2.442-2.544c-.559 0-1.106.202-1.539.569-.12.102-.298.083-.396-.043s-.079-.31.041-.412c.533-.451 1.205-.7 1.894-.7 1.657 0 3.004 1.404 3.004 3.13s-1.348 3.13-3.004 3.13z"/><path d="M16.233 24.745h-4.928a1.35 1.35 0 0 1-1.072-.535c-.263-.34-.362-.779-.273-1.206.256-1.225.914-2.333 1.851-3.12a5.18 5.18 0 0 1 3.32-1.22h.535c1.72 0 3.356.775 4.489 2.126.102.122.09.307-.027.413s-.295.094-.397-.028c-1.026-1.223-2.508-1.925-4.065-1.925h-.535c-2.208 0-4.152 1.631-4.622 3.878a.87.87 0 0 0 .162.713.8.8 0 0 0 .634.316h4.927c.155 0 .281.131.281.293s-.126.293-.281.293h-.001zm-1.465-12.503a.45.45 0 0 1-.276-.095c-.136-.103-.208-.268-.192-.443l.083-.937-.596-.707c-.111-.132-.146-.31-.094-.476s.181-.289.345-.327l.881-.207.461-.809c.086-.15.238-.24.406-.24s.32.09.406.24l.462.809.881.207c.164.039.293.161.345.328a.5.5 0 0 1-.094.476l-.596.708.083.937a.5.5 0 0 1-.192.443c-.135.103-.309.123-.464.054l-.83-.372-.83.372a.46.46 0 0 1-.187.041h0zm-.459-2.449l.521.618c.085.101.127.236.115.369l-.072.819.725-.325c.119-.053.254-.053.373 0l.726.325-.072-.819c-.012-.134.03-.268.115-.369l.521-.619-.77-.181a.47.47 0 0 1-.301-.228l-.404-.707-.404.707a.48.48 0 0 1-.301.228l-.771.181h0zm-2.692 2.449a.43.43 0 0 1-.174-.037l-.659-.295-.659.295a.42.42 0 0 1-.43-.05.46.46 0 0 1-.178-.41L9.583 11l-.474-.562c-.103-.122-.135-.287-.087-.441a.44.44 0 0 1 .319-.304l.7-.165.367-.643a.43.43 0 0 1 .752 0l.367.643.7.165a.44.44 0 0 1 .319.304.47.47 0 0 1-.087.441l-.473.562.066.745a.46.46 0 0 1-.178.411c-.077.058-.166.088-.256.088h0zm-.833-.931a.42.42 0 0 1 .172.037l.516.231-.051-.582a.47.47 0 0 1 .107-.343l.37-.439-.547-.129a.44.44 0 0 1-.279-.212l-.287-.503-.287.503c-.061.107-.163.184-.279.212l-.547.129.37.439a.47.47 0 0 1 .107.342l-.051.582.515-.231c.055-.025.114-.037.173-.037h-.001zm10.589.931c-.058 0-.117-.013-.174-.038l-.66-.295-.66.295a.42.42 0 0 1-.43-.05.46.46 0 0 1-.178-.411l.066-.745-.474-.562c-.103-.122-.135-.287-.087-.441a.44.44 0 0 1 .319-.304l.7-.165.367-.643a.43.43 0 0 1 .751 0l.367.643.7.165a.44.44 0 0 1 .319.304.47.47 0 0 1-.087.441l-.474.562.066.745a.46.46 0 0 1-.178.411c-.077.058-.166.088-.256.088h0zm-.833-.931a.42.42 0 0 1 .172.037l.516.231-.051-.582a.47.47 0 0 1 .107-.342l.37-.439-.547-.129a.44.44 0 0 1-.279-.212l-.287-.503-.287.503c-.061.107-.163.184-.279.212l-.547.129.37.439a.47.47 0 0 1 .107.342l-.051.582.516-.231c.055-.025.114-.037.173-.037h-.001zM26.942 28l-3.242-.012a4.64 4.64 0 0 1-1.929-.418c-.527-.239-1.105-.36-1.717-.36h-1.188c-.155 0-.281-.131-.281-.293v-4.178c0-.162.126-.293.281-.293h.768c.512 0 .97-.357 1.114-.869l1.123-3.994c.069-.247.241-.441.472-.532a.75.75 0 0 1 .691.072c.435.285.694.775.694 1.311v2.091a.4.4 0 0 0 .389.406l2.825.005c.583 0 1.058.494 1.058 1.103a1.12 1.12 0 0 1-.341.81c.209.202.341.49.341.81a1.12 1.12 0 0 1-.341.81 1.12 1.12 0 0 1 .341.81 1.12 1.12 0 0 1-.341.81 1.12 1.12 0 0 1 .341.81c0 .608-.475 1.103-1.059 1.103h0zm-7.794-1.377h.907a4.67 4.67 0 0 1 1.941.409 4.11 4.11 0 0 0 1.706.369l3.242.012c.273 0 .495-.232.495-.517s-.223-.517-.496-.517h-.923c-.155 0-.281-.131-.281-.293s.126-.293.281-.293h.923c.276-.002.496-.233.496-.517s-.223-.517-.496-.517h-.923c-.155 0-.281-.131-.281-.293s.126-.293.281-.293h.923c.276-.002.496-.233.496-.517s-.223-.517-.496-.517h-.923c-.155 0-.281-.131-.281-.293s.126-.293.281-.293h.923a.51.51 0 0 0 .497-.517.51.51 0 0 0-.496-.517l-2.825-.005c-.524-.001-.951-.446-.951-.992v-2.091a.97.97 0 0 0-.431-.815c-.058-.038-.128-.045-.192-.02a.22.22 0 0 0-.132.148l-1.123 3.994c-.214.76-.893 1.29-1.653 1.29h-.487v3.592l-.001.001z"/><path d="M18.558 27.833h-1.86c-.325 0-.59-.275-.59-.614v-4.94c0-.339.265-.614.59-.614h1.86c.325 0 .59.275.59.614v4.94c0 .339-.264.614-.59.614zm-1.86-5.583c-.015 0-.027.013-.027.029v4.94c0 .016.012.029.027.029h1.86c.015 0 .027-.013.027-.029v-4.94c0-.016-.012-.029-.027-.029h-1.86z"/></g><defs><clipPath id="A"><path fill="#fff" transform="translate(9 8)" d="M0 0h19v20H0z"/></clipPath></defs></svg>