<svg xmlns="http://www.w3.org/2000/svg" xmlns:xlink="http://www.w3.org/1999/xlink" width="36" height="36" fill="none" xmlns:v="https://vecta.io/nano"><g clip-path="url(#A)"><path stroke="#ededed" d="M.5.5h35v35H.5z"/><g fill="#fb9100"><path d="M22.951 8a5.01 5.01 0 0 0-3.57 1.479l-3.284 3.284a5.06 5.06 0 0 0-1.244 2.05l-.009.03-.029.009a5.07 5.07 0 0 0-2.052 1.245L9.479 19.38C8.525 20.334 8 21.602 8 22.951a5.01 5.01 0 0 0 1.479 3.57A5.02 5.02 0 0 0 13.049 28c1.348 0 2.617-.525 3.57-1.479l3.284-3.284a5.06 5.06 0 0 0 1.244-2.05l.009-.029.029-.009a5.07 5.07 0 0 0 2.052-1.245l3.284-3.284c.954-.954 1.479-2.222 1.479-3.57s-.525-2.617-1.479-3.57A5.02 5.02 0 0 0 22.951 8zm-8.052 10.239l.003-.005.068-.046.027.067c.254.618.623 1.172 1.098 1.648a5.03 5.03 0 0 0 1.648 1.099l.082.034-3.346 3.346c-.395.395-.913.592-1.431.592s-1.036-.197-1.431-.592c-.789-.789-.789-2.073 0-2.862l3.281-3.281zm4.532 4.526l-3.284 3.284a4.35 4.35 0 0 1-3.098 1.283 4.35 4.35 0 0 1-3.098-1.283 4.35 4.35 0 0 1-1.283-3.098 4.35 4.35 0 0 1 1.283-3.098l3.284-3.284a4.37 4.37 0 0 1 1.341-.916l.095-.042-.013.103a5.13 5.13 0 0 0-.038.619 5.09 5.09 0 0 0 .124 1.117l.008.037-.031.023a2.71 2.71 0 0 0-.293.253l-3.284 3.284c-1.049 1.049-1.049 2.757 0 3.807a2.67 2.67 0 0 0 1.903.787 2.67 2.67 0 0 0 1.903-.787l3.284-3.284a2.67 2.67 0 0 0 .787-1.903c0-.72-.28-1.396-.787-1.903a2.01 2.01 0 0 1-.592-1.431 2.03 2.03 0 0 1 .139-.74l.021-.054.067.025.037.014-.018.056.021-.055.044.017-.018.056.022-.055.031.013c.541.222 1.026.544 1.441.959a4.39 4.39 0 0 1 0 6.196zm6.618-6.618l-3.284 3.284a4.37 4.37 0 0 1-1.341.916l-.095.041.013-.103a5.08 5.08 0 0 0-.087-1.736l-.008-.037.031-.023c.104-.078.203-.163.293-.253l3.284-3.284c1.049-1.049 1.049-2.757 0-3.806a2.69 2.69 0 0 0-1.694-.779 2.7 2.7 0 0 0-1.774.492c-.15.107-.184.316-.078.466s.316.184.466.078c.808-.578 1.904-.487 2.607.216.789.789.789 2.073 0 2.862l-3.347 3.347-.034-.082c-.254-.618-.623-1.173-1.098-1.648-.326-.327-.697-.607-1.1-.834l-.002-.001a5.08 5.08 0 0 0-.546-.264l-.082-.034 1.401-1.401c.13-.13.13-.342 0-.472s-.342-.13-.472 0l-1.339 1.339a2.67 2.67 0 0 0-.787 1.903 2.67 2.67 0 0 0 .787 1.903 2.01 2.01 0 0 1 .592 1.431 2.02 2.02 0 0 1-.139.739l-.021.054-.054-.02a4.42 4.42 0 0 1-1.572-1.009 4.35 4.35 0 0 1-1.281-3.098 4.35 4.35 0 0 1 1.281-3.098l3.284-3.284a4.35 4.35 0 0 1 3.098-1.283 4.35 4.35 0 0 1 3.098 1.283 4.35 4.35 0 0 1 1.283 3.098 4.35 4.35 0 0 1-1.283 3.098h-.001zm-5.834-3.695c.13.13.342.13.472 0s.13-.342 0-.472c-.065-.065-.151-.098-.236-.098a.33.33 0 0 0-.236.098c-.13.13-.13.342 0 .472z"/><use xlink:href="#B"/><path d="M11.791 14.601H9.434c-.184 0-.334.15-.334.334s.15.334.334.334h2.358c.184 0 .334-.15.334-.334s-.15-.334-.334-.334zm3.145-5.619c-.184 0-.334.15-.334.334v2.358c0 .184.15.334.334.334s.334-.15.334-.334V9.316c0-.184-.15-.334-.334-.334h0zm8.302 13.783c-.065-.065-.151-.098-.236-.098a.33.33 0 0 0-.236.098c-.13.13-.13.342 0 .472l1.667 1.667c.063.063.147.098.236.098a.33.33 0 0 0 .236-.098c.13-.13.13-.342 0-.472l-1.667-1.667zm-2.213 1.227c-.184 0-.334.15-.334.334v2.357c0 .184.15.334.334.334s.334-.15.334-.334v-2.357c0-.184-.15-.334-.334-.334zm5.659-3.3h-2.357c-.184 0-.334.15-.334.334s.15.334.334.334h2.357c.184 0 .334-.15.334-.334s-.15-.334-.334-.334z"/></g></g><path stroke="#ededed" d="M.5.5h35v35H.5z"/><defs><clipPath id="A"><path fill="#fff" transform="translate(8 8)" d="M0 0h20v20H0z"/></clipPath><path id="B" d="M11.568 11.095c-.065-.065-.151-.098-.236-.098s-.171.032-.236.098c-.13.13-.13.342 0 .472l1.667 1.667c.063.063.147.098.236.098a.33.33 0 0 0 .236-.098c.13-.13.13-.342 0-.472l-1.667-1.667z"/></defs></svg>