<svg xmlns="http://www.w3.org/2000/svg" width="36" height="36" fill="none" xmlns:v="https://vecta.io/nano"><path stroke="#ededed" d="M.5.5h35v35H.5z"/><g clip-path="url(#A)" fill="#fb9100"><path d="M14.784 19.251c-1.686 0-3.057-1.404-3.057-3.13a3.17 3.17 0 0 1 .3-1.354c.068-.146.239-.207.382-.137s.203.245.134.391a2.57 2.57 0 0 0-.243 1.1c0 1.403 1.115 2.544 2.485 2.544s2.485-1.141 2.485-2.544-1.115-2.544-2.485-2.544c-.569 0-1.125.202-1.566.569-.122.102-.303.083-.402-.043s-.081-.31.042-.412a3.02 3.02 0 0 1 1.927-.7c1.686 0 3.057 1.404 3.057 3.13s-1.371 3.13-3.057 3.13z"/><path d="M15.359 24.745h-5.014a1.38 1.38 0 0 1-1.091-.535c-.267-.34-.369-.779-.278-1.206.261-1.225.93-2.333 1.884-3.12s2.154-1.22 3.379-1.22h.545c1.75 0 3.415.775 4.568 2.126.104.122.092.307-.027.413s-.3.094-.404-.028c-1.044-1.223-2.552-1.925-4.137-1.925h-.545c-2.247 0-4.225 1.631-4.703 3.879a.86.86 0 0 0 .164.713c.158.201.393.316.646.316h5.014a.29.29 0 0 1 .286.293.29.29 0 0 1-.286.293h-.001zm-1.49-12.503a.47.47 0 0 1-.281-.095.49.49 0 0 1-.196-.443l.084-.937-.606-.707a.5.5 0 0 1-.096-.476.48.48 0 0 1 .351-.327l.897-.207.47-.809c.088-.15.242-.24.413-.24s.325.09.413.24l.47.809.897.207a.48.48 0 0 1 .351.328c.053.166.017.345-.096.476l-.606.708.084.937c.016.174-.058.34-.196.443s-.315.123-.472.054l-.844-.372-.844.372a.47.47 0 0 1-.191.041h0zm-.467-2.449l.53.618a.5.5 0 0 1 .117.369l-.074.819.738-.325a.47.47 0 0 1 .379 0l.738.325-.074-.819a.5.5 0 0 1 .117-.369l.53-.619-.784-.181c-.128-.03-.24-.113-.307-.228l-.411-.707-.411.707c-.067.115-.179.198-.307.228l-.784.181h0zm-2.739 2.449a.44.44 0 0 1-.177-.037l-.671-.295-.671.295c-.146.064-.309.045-.437-.05s-.196-.249-.182-.41L8.592 11l-.482-.562a.46.46 0 0 1-.089-.441c.049-.154.171-.268.325-.304l.713-.165.373-.643a.44.44 0 0 1 .765 0l.373.643.713.165c.154.036.276.149.325.304a.46.46 0 0 1-.089.441l-.482.562.067.745c.014.162-.053.315-.182.411-.078.058-.169.088-.261.088h0zm-.848-.931c.06 0 .12.012.175.037l.525.231-.052-.582c-.011-.124.029-.249.109-.342l.377-.439-.557-.129c-.119-.027-.222-.105-.284-.211l-.292-.503-.292.503a.45.45 0 0 1-.284.212l-.557.129.377.44c.08.094.12.218.109.342l-.052.582.525-.231a.43.43 0 0 1 .176-.037h0zm10.776.931a.44.44 0 0 1-.177-.037l-.671-.295-.671.295c-.146.064-.309.045-.437-.05s-.196-.249-.182-.41L18.52 11l-.482-.562a.46.46 0 0 1-.089-.441c.049-.154.171-.268.325-.304l.713-.165.373-.643a.44.44 0 0 1 .765 0l.373.643.713.165c.154.036.276.149.325.304a.46.46 0 0 1-.089.441l-.482.562.067.745c.014.162-.054.315-.182.41-.078.058-.169.088-.261.088h0zm-.848-.93c.06 0 .12.012.175.037l.525.231-.052-.583c-.011-.124.028-.248.108-.342l.377-.44-.557-.129c-.119-.027-.222-.105-.284-.211l-.292-.503-.292.503a.45.45 0 0 1-.284.212l-.557.129.377.439c.08.093.12.218.109.342l-.052.583.524-.231a.43.43 0 0 1 .176-.037h0zM26.257 28l-3.299-.012a4.81 4.81 0 0 1-1.963-.418c-.537-.239-1.124-.36-1.747-.36H18.04a.29.29 0 0 1-.286-.293v-4.178a.29.29 0 0 1 .286-.293h.781a1.19 1.19 0 0 0 1.133-.869l1.142-3.994a.8.8 0 0 1 .481-.532.77.77 0 0 1 .703.072 1.55 1.55 0 0 1 .706 1.311v2.091c0 .223.178.406.396.406l2.875.005c.594 0 1.077.495 1.077 1.103a1.11 1.11 0 0 1-.347.81c.213.202.347.49.347.81a1.11 1.11 0 0 1-.347.81 1.11 1.11 0 0 1 .347.81 1.11 1.11 0 0 1-.347.81 1.11 1.11 0 0 1 .347.81c0 .608-.483 1.103-1.077 1.103h0zm-7.931-1.377h.922c.702 0 1.366.137 1.975.409a4.24 4.24 0 0 0 1.736.369l3.299.012c.277 0 .504-.232.504-.517s-.227-.517-.505-.517h-.939a.29.29 0 0 1-.286-.293.29.29 0 0 1 .286-.293h.939c.28-.002.505-.233.505-.517s-.227-.517-.505-.517h-.939a.29.29 0 0 1-.286-.293.29.29 0 0 1 .286-.293h.939c.28-.002.505-.233.505-.517s-.227-.517-.505-.517h-.939a.29.29 0 0 1-.286-.293.29.29 0 0 1 .286-.293h.939c.281-.003.505-.234.505-.517s-.227-.517-.505-.517l-2.875-.005c-.533-.001-.967-.446-.967-.992v-2.091c0-.333-.164-.637-.439-.815-.059-.038-.13-.045-.195-.02s-.114.079-.134.148l-1.142 3.994c-.217.76-.909 1.29-1.682 1.29h-.495v3.592.001z"/><path d="M17.725 27.833h-1.892c-.331 0-.6-.275-.6-.614v-4.94c0-.339.269-.614.6-.614h1.892c.331 0 .6.275.6.614v4.94c0 .339-.269.614-.6.614zm-1.892-5.583c-.015 0-.028.013-.028.029v4.94c0 .016.013.029.028.029h1.892c.015 0 .028-.013.028-.029v-4.94c0-.016-.013-.029-.028-.029h-1.892z"/></g><defs><clipPath id="A"><path fill="#fff" transform="translate(8 8)" d="M0 0h19.333v20H0z"/></clipPath></defs></svg>