<svg xmlns="http://www.w3.org/2000/svg" width="36" height="36" fill="none" xmlns:v="https://vecta.io/nano"><path stroke="#ededed" d="M.5.5h35v35H.5z"/><g clip-path="url(#A)" fill="#fb9100"><path d="M22.155 18.051c-1.232 0-2.235 1.006-2.235 2.242s1.003 2.242 2.235 2.242 2.235-1.006 2.235-2.242-1.003-2.242-2.235-2.242zm0 3.879c-.899 0-1.631-.734-1.631-1.636s.732-1.636 1.631-1.636 1.631.734 1.631 1.636-.732 1.636-1.631 1.636zm0-2.586a.95.95 0 0 0 0 1.9.95.95 0 0 0 0-1.9zm0 1.293c-.189 0-.342-.154-.342-.343s.154-.343.342-.343.342.154.342.343-.153.343-.342.343zm2.03 5.064l-.082-.206.233-.374H28l-.416-2.083-1.944-1.625v-.011l.037-.724-.001-.032-.001-.029v-.021h.002V9.949A.95.95 0 0 0 24.732 9H8.946A.95.95 0 0 0 8 9.949v13.576a.95.95 0 0 0 .946.949h7.492l-.129.647h3.665l.233.374-.129.323c-.32.804-.062 1.729.628 2.248l.591.444.619-1.242.02.021a2.03 2.03 0 0 1 .562 1.407V29h.769l.53-.665c.592-.742.741-1.752.389-2.634h-.001zm1.352-3.548l.006-.034 1.491 1.247.001.007.228 1.142h-2.567l.016-.03a7.97 7.97 0 0 0 .825-2.332h0zM8.604 9.949c0-.189.153-.343.342-.343h15.786c.189 0 .342.154.342.343v2.929H8.604V9.949zm7.955 13.919H8.946c-.189 0-.342-.154-.342-.343v-10.04h16.47v4.152l-.039-.091c-.198-.466-.432-.902-.693-1.295l-.935-1.407a1.5 1.5 0 0 0-2.506.001l-.935 1.407a7.97 7.97 0 0 0-1.336 4.426 7.97 7.97 0 0 0 .037.724l.001.011-.008.007-1.936 1.619-.166.831h0zm7.385-7.111h-3.563v-.026l.003-.005.037-.061.048-.078.935-1.407a.9.9 0 0 1 1.501 0l.935 1.407.05.08.035.059.02.031h0zm-6.898 7.757l.229-1.149.006-.005 1.486-1.242.006.034c.154.82.432 1.605.825 2.332l.016.03h-2.568zm2.635-1.306a7.37 7.37 0 0 1-.447-2.531 7.31 7.31 0 0 1 .783-3.303l.006-.011h4.262l.006.011a7.31 7.31 0 0 1 .783 3.303 7.37 7.37 0 0 1-.447 2.531l-.005.013h-4.936l-.005-.013zm.67 1.376a7.31 7.31 0 0 1-.394-.728l-.014-.029h4.42l-.014.029a7.35 7.35 0 0 1-.394.728l-.359.577h-2.887l-.359-.577h0zm2.973 3.372l-.256.32-.008-.044a2.62 2.62 0 0 0-.732-1.406l-.579-.581-.67 1.344-.019-.015a1.32 1.32 0 0 1-.422-1.533l.11-.276h2.813l.063.159a2.05 2.05 0 0 1-.3 2.03h0zM9.289 10.293v1.899h1.893v-1.899H9.289zm1.289 1.293h-.685v-.687h.685v.687zm1.287-1.293v1.899h1.893v-1.899h-1.893zm1.289 1.293h-.685v-.687h.685v.687zm1.289-1.293v1.899h1.893v-1.899h-1.893zm1.289 1.293h-.685v-.687h.685v.687zm1.249 9.05v-6.465h-1.893v6.465h-.685v-3.879H12.51v3.879h-.684V18.05H9.933v2.586h-.644v.606h8.336v-.606h-.644zm-5.759 0h-.685v-1.98h.685v1.98zm2.577 0h-.685v-3.273h.685v3.273zm2.577 0h-.684v-5.859h.684v5.859zm-6.483-6.464h-.604v.606h.604v-.606zm3.866 0h-3.181v.606h3.181v-.606zm-3.866 1.293h-.604v.606h.604v-.606zm3.866 0h-3.181v.606h3.181v-.606z"/></g><defs><clipPath id="A"><path fill="#fff" transform="translate(8 9)" d="M0 0h20v20H0z"/></clipPath></defs></svg>