<svg width="36" height="36" viewBox="0 0 36 36" fill="none" xmlns="http://www.w3.org/2000/svg">
<rect x="0.5" y="0.5" width="35" height="35" stroke="#F7F7F7"/>
<g clip-path="url(#clip0_62_58)">
<path d="M12.9034 13.5363V13.5385H12.9819C13.349 13.5385 13.696 13.396 13.9602 13.1368C14.2079 12.8936 14.3504 12.5784 14.3661 12.2423H14.3684V12.166C14.3684 11.8097 14.2216 11.4727 13.9547 11.2162C13.7042 10.9757 13.3796 10.8374 13.0334 10.8221V10.8198H12.9549C12.5882 10.8198 12.2408 10.9624 11.9766 11.2216C11.7289 11.4647 11.5864 11.7799 11.5707 12.1161H11.5684V12.1923C11.5684 12.5483 11.7152 12.8856 11.9821 13.1421C12.2326 13.3826 12.5572 13.521 12.9034 13.5363ZM12.9556 11.3915L12.9847 11.3908C13.4189 11.3995 13.7725 11.7422 13.7796 12.1672L13.7804 12.1939C13.7718 12.6162 13.4189 12.9603 12.9808 12.9672L12.9529 12.968C12.5183 12.9596 12.1639 12.6169 12.1572 12.1916L12.1564 12.1649C12.1646 11.7426 12.5179 11.3984 12.956 11.3915H12.9556Z" fill="#EC1F27"/>
<path d="M9.94696 13.0207L10.4149 13.1068L10.4954 13.2928L10.2269 13.6969C10.1519 13.8104 10.1695 13.961 10.2693 14.0551L11.0657 14.809C11.1655 14.9108 11.3248 14.9276 11.4442 14.8483L11.8383 14.5876L12.0302 14.6642L12.1343 15.1326L12.148 15.1929H12.1555C12.2026 15.292 12.3062 15.3583 12.422 15.3583C12.4232 15.3583 12.4244 15.3583 12.4255 15.3583L13.5365 15.3449C13.6805 15.3491 13.8081 15.2497 13.8348 15.1124L13.9235 14.6581L14.1151 14.58L14.5312 14.8407C14.6482 14.9135 14.8036 14.8963 14.9002 14.7995L15.6771 14.0262C15.7823 13.9294 15.7992 13.7746 15.7175 13.6587L15.4494 13.2757L15.5283 13.0893L16.0107 12.9883L16.0728 12.975V12.9677C16.1756 12.9212 16.2443 12.8195 16.2431 12.7059L16.2294 11.6272C16.2341 11.4877 16.1317 11.3635 15.9899 11.3376L15.522 11.2514L15.4415 11.0654L15.71 10.6614C15.785 10.5478 15.7674 10.3973 15.6677 10.3031L14.8712 9.54885C14.7715 9.4467 14.6121 9.43031 14.4927 9.50959L14.0982 9.7703L13.9063 9.69369L13.8022 9.22526L13.7885 9.16504H13.781C13.7328 9.06556 13.6279 9 13.5106 9L12.3996 9.01334C12.2552 9.00953 12.128 9.10825 12.1013 9.24584L12.0126 9.70017L11.8206 9.7783L11.4049 9.51798C11.2879 9.44518 11.1329 9.46233 11.0359 9.55914L10.259 10.3325C10.1538 10.4293 10.137 10.584 10.2186 10.7003L10.4871 11.0833L10.4082 11.2697L9.92577 11.3707L9.86374 11.3841V11.3913C9.76089 11.4378 9.6922 11.5396 9.69337 11.6535L9.70711 12.7322C9.7024 12.8717 9.80525 12.9959 9.94657 13.0219L9.94696 13.0207ZM10.9166 11.5865C10.9582 11.4504 11.0147 11.3181 11.0842 11.1931C11.1376 11.0971 11.1301 10.982 11.0661 10.8943L10.8396 10.5715L11.2891 10.1244L11.6424 10.3454C11.7366 10.4041 11.8587 10.4053 11.9541 10.3489C12.0813 10.2829 12.2159 10.2292 12.3541 10.1884C12.4636 10.1568 12.5449 10.0653 12.561 9.95553L12.6344 9.5801L13.2778 9.57248L13.3661 9.97002C13.3897 10.0775 13.4756 10.1629 13.5855 10.1884C13.6515 10.2075 13.7174 10.2303 13.7822 10.2563C13.8509 10.2837 13.9188 10.3153 13.9848 10.3496C14.0837 10.4015 14.2022 10.3942 14.2925 10.3321L14.625 10.1122L15.0859 10.5482L14.8578 10.8912C14.7974 10.9827 14.7958 11.1013 14.8543 11.1939C14.9222 11.3174 14.9779 11.4481 15.0195 11.5819C15.0521 11.6882 15.1463 11.7671 15.2594 11.7827L15.6461 11.854L15.6539 12.4787L15.2445 12.5645C15.1338 12.5873 15.0458 12.6708 15.0195 12.7775C14.9779 12.9113 14.9218 13.0417 14.8535 13.1648C14.8001 13.2608 14.8076 13.3759 14.8716 13.4636L15.0981 13.7864L14.649 14.2335L14.2957 14.0121C14.2015 13.9534 14.0794 13.9522 13.984 14.0086C13.8568 14.0746 13.7222 14.1287 13.5844 14.1691C13.4748 14.2007 13.3936 14.2918 13.3775 14.4016L13.3041 14.777L12.6607 14.785L12.5724 14.3875C12.5488 14.28 12.4632 14.1946 12.3533 14.1691C12.2155 14.1287 12.0813 14.0742 11.9541 14.0079C11.8552 13.956 11.7366 13.9633 11.6463 14.0254L11.3138 14.2453L10.8534 13.8093L11.0814 13.4663C11.1419 13.3748 11.1431 13.2563 11.085 13.1636C11.0171 13.0401 10.9613 12.9094 10.9197 12.7756C10.8871 12.6693 10.7933 12.5904 10.6803 12.5748L10.2936 12.5035L10.2857 11.8788L10.6952 11.793C10.8043 11.7706 10.8922 11.6882 10.9185 11.5861L10.9166 11.5865Z" fill="#EC1F27"/>
<path d="M25.8718 25.3904H24.9438V24.1109C26.4897 23.6131 27.3502 21.9971 26.8646 20.4801C26.5772 19.5814 25.8612 18.8743 24.9438 18.5786V13.7849C24.9438 13.6271 24.8119 13.499 24.6494 13.499H22.1194C21.9569 13.499 21.825 13.6271 21.825 13.7849V19.3363C21.2915 19.8802 20.9982 20.5921 20.9982 21.3445C20.9982 22.0969 21.2915 22.8085 21.825 23.3528V25.3904H20.7427V16.6126C20.7427 16.4548 20.6108 16.3267 20.4483 16.3267H17.9183C17.7557 16.3267 17.6238 16.4548 17.6238 16.6126V25.3904H16.5416V18.0461C16.5416 17.8883 16.4097 17.7602 16.2472 17.7602H13.7175C13.555 17.7602 13.4231 17.8883 13.4231 18.0461V25.3904H12.3409V20.1679C12.3409 20.0101 12.209 19.8821 12.0464 19.8821H9.51683C9.35431 19.8821 9.22241 20.0101 9.22241 20.1679V25.3904H8.29442C8.1319 25.3904 8 25.5185 8 25.6763V26.7141C8 26.8719 8.1319 27 8.29442 27H25.8718C26.0343 27 26.1662 26.8719 26.1662 26.7141V25.6763C26.1662 25.5185 26.0343 25.3904 25.8718 25.3904ZM9.81085 25.3904V20.4538H11.7524V25.3904H9.81085ZM14.012 25.3904V18.3316H15.9535V25.3904H14.012ZM18.2131 25.3904V16.8985H20.1546V25.3904H18.2131ZM23.9993 19.0028C25.3293 19.0028 26.4116 20.0536 26.4116 21.3449C26.4116 22.6362 25.3293 23.6871 23.9993 23.6871C22.6693 23.6871 21.5871 22.6362 21.5871 21.3449C21.5871 20.0536 22.669 19.0028 23.9993 19.0028ZM24.3554 24.2382V25.3908H22.4138V23.8189C22.994 24.1703 23.6751 24.3175 24.3554 24.2382ZM24.3554 18.4516C23.6751 18.3724 22.994 18.5195 22.4138 18.8709V14.0711H24.3554V18.4516ZM8.58883 26.4283V25.9617H25.5778V26.4283H8.58883Z" fill="#EC1F27"/>
<path d="M23.7044 19.8867V19.9439C23.5737 19.9858 23.4536 20.0555 23.3543 20.1482C23.0897 20.3944 23.0096 20.75 23.1446 21.077C23.2836 21.4132 23.6188 21.6301 23.9988 21.6301C24.1676 21.6301 24.2689 21.7292 24.307 21.8222C24.3521 21.9312 24.3254 22.0459 24.2363 22.1294C24.1378 22.2208 23.9902 22.2452 23.8595 22.1911C23.7405 22.1419 23.6695 22.0421 23.6695 21.9277C23.6695 21.9209 23.6695 21.914 23.6695 21.9072C23.6667 21.8309 23.6334 21.76 23.5761 21.7082C23.5187 21.6564 23.4442 21.6293 23.3649 21.6316C23.2863 21.6343 23.2133 21.6666 23.1599 21.7223C23.1066 21.7779 23.0783 21.8511 23.081 21.9254C23.0858 22.3024 23.3393 22.6317 23.7048 22.7453V22.8021C23.7107 22.9503 23.8351 23.0712 23.9878 23.0769C23.9918 23.0769 23.9957 23.0769 23.9992 23.0769C24.0734 23.0769 24.1441 23.0502 24.199 23.0007C24.2567 22.9488 24.2901 22.8783 24.2932 22.799V22.7445C24.4236 22.7026 24.5437 22.6329 24.6434 22.5402C24.908 22.294 24.9885 21.9384 24.853 21.6118C24.7141 21.2756 24.3788 21.0583 23.9988 21.0583C23.83 21.0583 23.7291 20.9589 23.6907 20.8662C23.6455 20.7572 23.6718 20.6425 23.7613 20.559C23.8599 20.4676 24.0079 20.4432 24.1382 20.4973C24.2571 20.5465 24.3282 20.6463 24.3282 20.7607C24.3282 20.7683 24.3282 20.7755 24.3282 20.7828C24.3313 20.859 24.3647 20.9295 24.4224 20.9817C24.4801 21.0339 24.5551 21.0599 24.6336 21.0576C24.7121 21.0545 24.7847 21.0221 24.8385 20.9661C24.8919 20.9101 24.9198 20.8373 24.917 20.763C24.9123 20.386 24.6587 20.0567 24.2932 19.9431V19.8863C24.2874 19.7381 24.1629 19.6172 24.0102 19.6115C23.9321 19.6088 23.8567 19.6355 23.799 19.6874C23.7413 19.7392 23.7079 19.8097 23.7048 19.8863L23.7044 19.8867Z" fill="#EC1F27"/>
<path d="M9.51246 18.0278C9.5368 18.0278 9.56153 18.0248 9.58626 18.0187C16.1364 16.3649 21.1164 13.7045 24.3914 10.1107L24.4283 10.8497C24.4311 10.9259 24.4641 10.9964 24.5214 11.0483C24.5787 11.1001 24.6537 11.1268 24.7318 11.1249C24.8103 11.1222 24.8829 11.0902 24.9363 11.0346C24.9897 10.9789 25.0179 10.9065 25.0152 10.8295L24.943 9.3781C24.9438 9.30301 24.9147 9.23174 24.8605 9.17761C24.806 9.12273 24.733 9.09186 24.6544 9.09033C24.6415 9.09033 24.6285 9.09033 24.6156 9.09224L23.1309 9.16199C23.0524 9.16466 22.9798 9.19667 22.9264 9.25232C22.873 9.30797 22.8448 9.38038 22.8475 9.45661C22.853 9.61365 22.9884 9.73714 23.151 9.7318L23.9867 9.69254C20.7905 13.2212 15.897 15.8359 9.43866 17.4668C9.3629 17.4858 9.29891 17.5327 9.25926 17.5983C9.21962 17.6638 9.20862 17.7404 9.22825 17.8144C9.2624 17.9424 9.38213 18.0278 9.51246 18.0278Z" fill="#EC1F27"/>
</g>
<defs>
<clipPath id="clip0_62_58">
<rect width="19" height="18" fill="white" transform="translate(8 9)"/>
</clipPath>
</defs>
</svg>
