<svg xmlns="http://www.w3.org/2000/svg" width="36" height="36" fill="none" xmlns:v="https://vecta.io/nano"><path stroke="#ededed" d="M.5.5h35v35H.5z"/><g clip-path="url(#A)"><path d="M26.757 9H10.595C9.715 9 9 9.73 9 10.627v10.81c0 .897.715 1.627 1.595 1.627h5.244c-.01 1.051-.261 2.115-.54 2.742h-1.114c-.594 0-1.076.492-1.076 1.098S13.592 28 14.185 28h8.63c.593 0 1.076-.492 1.076-1.098s-.483-1.098-1.076-1.098h-1.117c-.292-.638-.558-1.706-.578-2.742h5.285c.879 0 1.595-.73 1.595-1.627V10.268C28 9.569 27.442 9 26.757 9zm-16.163.549h16.163c.389 0 .704.322.704.719v9.557H14.794l.959-.978a.73.73 0 0 0 .19-.665l.539-.55c.321.216.681.383 1.072.49.319.087.639.129.954.129 1.629 0 3.124-1.111 3.566-2.791.255-.971.124-1.986-.369-2.856a3.68 3.68 0 0 0-2.241-1.754c-1.965-.537-3.993.657-4.52 2.662a3.82 3.82 0 0 0 .482 3.04l-.54.552a.7.7 0 0 0-.652.194l-2.374 2.422a.72.72 0 0 0-.084.104H9.538v-9.198c0-.594.474-1.077 1.056-1.077zm4.87 4.105c.377-1.435 1.654-2.383 3.045-2.383.269 0 .543.036.815.11a3.14 3.14 0 0 1 1.914 1.498 3.25 3.25 0 0 1 .315 2.44c-.377 1.435-1.654 2.383-3.045 2.383a3.08 3.08 0 0 1-.815-.11c-1.679-.459-2.679-2.225-2.229-3.938zm.587 3.64l-.41.418-.295-.301.41-.419a3.73 3.73 0 0 0 .295.302h0zm-1.197.392l.517.527c.065.066.065.178 0 .244l-2.374 2.422c-.031.032-.074.05-.12.05s-.088-.018-.12-.05l-.517-.527c-.032-.032-.049-.076-.049-.122s.017-.09.049-.122l2.374-2.422c.033-.033.076-.05.12-.05s.087.016.12.05h0zm8.497 9.216c0 .302-.241.549-.538.549h-8.63c-.296 0-.538-.246-.538-.549s.241-.549.538-.549h8.63c.296 0 .538.246.538.549zm-2.242-1.098h-5.227c.295-.765.484-1.803.494-2.742h4.205c.017.927.219 1.966.529 2.742h0zm5.295-3.292H10.595c-.582 0-1.056-.483-1.056-1.077v-1.062h2.129c.027.135.091.264.193.368l.517.527a.7.7 0 0 0 1.002 0l.877-.895h13.205v1.062c0 .594-.474 1.077-1.056 1.077zm-6.908-1.07c0 .152-.12.275-.269.275h-1.457c-.149 0-.269-.123-.269-.275s.12-.275.269-.275h1.457c.149 0 .269.123.269.275zm-1.168-6.682h1.203v.194c0 .152.12.275.269.275s.269-.123.269-.275v-.194h.285v.434c0 .152.12.275.269.275s.269-.123.269-.275v-.434c.148-.001.268-.123.268-.275s-.12-.275-.269-.275h-2.564a1.26 1.26 0 0 0-1.222-1.002c-.69 0-1.251.573-1.251 1.277s.561 1.277 1.252 1.277a1.26 1.26 0 0 0 1.222-1.002zm-1.222.453c-.393 0-.713-.326-.713-.727s.32-.727.713-.727.713.326.713.727-.32.727-.713.727z" fill="#fb9100"/></g><defs><clipPath id="A"><path fill="#fff" transform="translate(9 9)" d="M0 0h19v19H0z"/></clipPath></defs></svg>