<svg xmlns="http://www.w3.org/2000/svg" xmlns:xlink="http://www.w3.org/1999/xlink" width="36" height="36" fill="none" xmlns:v="https://vecta.io/nano"><path stroke="#f7f7f7" d="M.5.5h35v35H.5z"/><g clip-path="url(#A)" fill="#038eb0"><path d="M11.839 17.996c.193 0 .349-.155.349-.346s-.156-.346-.349-.346h-1.396c-.193 0-.349.155-.349.346v2.076c0 .191.156.346.349.346h1.396c.193 0 .349-.155.349-.346s-.156-.346-.349-.346h-1.047v-1.384h1.047zm11.866 1.384c-.193 0-.349.155-.349.346s.156.346.349.346H25.1c.193 0 .349-.155.349-.346V17.65c0-.191-.156-.346-.349-.346h-1.396c-.193 0-.349.155-.349.346s.156.346.349.346h1.047v1.384h-1.047zm-8.027-2.422h4.188c.193 0 .349-.155.349-.346s-.156-.346-.349-.346h-4.188c-.193 0-.349.155-.349.346s.156.346.349.346zm1.047 2.422c0-.191-.156-.346-.349-.346H14.98c-.193 0-.349.155-.349.346s.156.346.349.346h1.396c.193 0 .349-.155.349-.346zm1.047 1.038h-2.094c-.193 0-.349.155-.349.346s.156.346.349.346h2.094c.193 0 .349-.155.349-.346s-.156-.346-.349-.346zm2.093 0h-.698c-.193 0-.349.155-.349.346s.156.346.349.346h.698c.193 0 .349-.155.349-.346s-.156-.346-.349-.346zm1.048-1.038c0-.191-.156-.346-.349-.346h-2.792c-.193 0-.349.155-.349.346s.156.346.349.346h2.792c.193 0 .349-.155.349-.346zm-2.095-1.384c0 .191.156.346.349.346h1.396c.193 0 .349-.155.349-.346s-.156-.346-.349-.346h-1.396c-.193 0-.349.155-.349.346zm-3.838.346h2.792c.193 0 .349-.155.349-.346s-.156-.346-.349-.346H14.98c-.193 0-.349.155-.349.346s.156.346.349.346zm7.576 3.56a.35.35 0 0 0-.408-.055l-.38-.391a4.82 4.82 0 0 0-1.204-6.746c-2.211-1.534-5.257-.999-6.804 1.194s-1.007 5.212 1.204 6.746a4.92 4.92 0 0 0 5.6 0l.384.377c-.072.133-.05.296.056.405l3.273 3.246a1.1 1.1 0 0 0 1.545.012c.21-.205.327-.484.326-.776a1.06 1.06 0 0 0-.318-.765l-3.273-3.245zm-8.972-3.214c0-2.293 1.875-4.152 4.188-4.152s4.188 1.859 4.188 4.152-1.875 4.152-4.188 4.152-4.188-1.859-4.188-4.152zm7.737 3.318l.321.315-.206.204-.318-.318.202-.201zm3.738 4.294a.39.39 0 0 1-.276-.114l-3.029-3 .555-.55 3.026 3.003c.152.152.152.397-.001.548-.073.072-.171.112-.274.113zM27.194 9H8.349C8.156 9 8 9.155 8 9.346v15.916c0 .191.156.346.349.346h12.912c.193 0 .349-.155.349-.346s-.156-.346-.349-.346H8.698V12.46h18.147v12.802c0 .191.156.346.349.346s.349-.155.349-.346V9.346c0-.191-.156-.346-.349-.346zm-18.496.692h4.886v2.076H8.698V9.692zm5.584 2.076V9.692h12.563v2.076H14.282z"/><use xlink:href="#B"/><path d="M11.141 10.384c-.193 0-.349.155-.349.346s.156.346.349.346.349-.155.349-.346-.156-.346-.349-.346zm1.396 0c-.193 0-.349.155-.349.346s.156.346.349.346.349-.155.349-.346-.156-.346-.349-.346zm13.261 0H15.329c-.193 0-.349.155-.349.346s.156.346.349.346h10.469c.193 0 .349-.155.349-.346s-.156-.346-.349-.346z"/></g><defs><clipPath id="A"><path fill="#fff" transform="translate(8 9)" d="M0 0h19.543v18H0z"/></clipPath><path id="B" d="M9.744 10.384c-.193 0-.349.155-.349.346s.156.346.349.346.349-.155.349-.346-.156-.346-.349-.346z"/></defs></svg>