<svg xmlns="http://www.w3.org/2000/svg" xmlns:xlink="http://www.w3.org/1999/xlink" width="36" height="36" fill="none" xmlns:v="https://vecta.io/nano"><path stroke="#f7f7f7" d="M.5.5h35v35H.5z"/><g clip-path="url(#A)" fill="#038eb0"><path d="M27.76 25.193c-.048-.048-.144-.1-.21-.1h-1.483v-7.146l1.004-2.338c.079.056.147.113.171.183.034.138.035.241.002.342l-1.091 2.573a.74.74 0 0 0 0 .603c.073.182.212.323.426.43l.016.008h.096a.29.29 0 0 0 .263-.159l.004-.01c.025-.075.025-.153-.002-.218a.26.26 0 0 0-.164-.151l-.012-.004h-.012c-.028 0-.054-.047-.088-.114-.028-.057-.028-.109 0-.166l1.055-2.658a1.05 1.05 0 0 0 .002-.715l-.002-.004a.88.88 0 0 0-.434-.479l.239-.556a.94.94 0 0 0 0-.681.85.85 0 0 0-.471-.472.91.91 0 0 0-.67.01.85.85 0 0 0-.48.46l-.265.617a.26.26 0 0 0-.166.169c-.025.075-.024.15.001.215l-.169.392c-.106-.029-.201-.035-.267-.035h-1.132v-3.863c0-.73-.576-1.324-1.284-1.324h-10.25c-.006 0-.012 0-.02.002L12.311 10c-.708 0-1.284.577-1.284 1.285v.353H9.271c-.159 0-.271.111-.271.271v1.287c0 .709.576 1.285 1.284 1.285h2.847v.706H11.96a1.04 1.04 0 0 0-1.051 1.051v8.855H9.427c-.11 0-.167.058-.21.1-.061.061-.061.162-.061.21l.001.01c.12.92.758 1.587 1.517 1.587h15.668c.764 0 1.4-.684 1.479-1.59v-.006c0-.048 0-.148-.061-.21h0zm-16.308-.1v-8.815c0-.271.237-.509.508-.509h1.132v9.324h-1.64zm12.472-6.614v-2.75h1.093c.027 0 .056.002.085.007l-1.178 2.742h0zm-1.088 4.835l-.191-.446.328-.764.635.263-.178.414c-.055.049-.086.12-.087.202l-.06.139-.448.192h0zm.547-8.002a.28.28 0 0 0-.039.146c0 .053.013.104.039.146v4.137l-.791 1.841a.31.31 0 0 0-.024.052l-.465 1.086-.006.014v.186l.274.719-.229.523-.003.006c-.025.075-.025.153.002.218a.26.26 0 0 0 .164.151l.012.004h.09c.126 0 .22-.072.231-.173l.26-.521.446-.191v1.435h-9.708V11.246a1.3 1.3 0 0 0-.235-.743h9.24c.395 0 .742.365.742.782v4.027h0zm-.184 6.266l.652-1.521a.26.26 0 0 0 .072-.169l1.78-4.15.005-.004.006-.018.255-.597.631.271-.974 2.27c-.064.049-.1.127-.1.216v.018l-1.693 3.946-.635-.263h0zm1.051.602l1.276-2.971v5.884h-1.641v-2.065l.264-.614a.28.28 0 0 0 .079-.096l.004-.01a.35.35 0 0 0 .018-.127h0zm1.945-7.587l.218-.509.002-.006a.3.3 0 0 1 .161-.177.37.37 0 0 1 .284-.01l.004.002c.094.031.155.092.186.186l.004.01c.029.059.028.155-.003.251l-.225.525-.631-.271zm-13.101-3.308v2.654H11.36a1.31 1.31 0 0 0 .109-.181 1.17 1.17 0 0 0 .139-.562v-1.911c0-.409.333-.743.742-.743s.742.333.742.743zm-2.066.895v.977c0 .389-.354.743-.742.743-.409 0-.742-.333-.742-.743v-.977h1.485 0zm16.186 13.494c-.168.479-.517.784-.909.784H10.674c-.392 0-.741-.304-.909-.784h17.448zm-4.301.663h.156a.26.26 0 0 0 .271-.271c0-.159-.111-.271-.271-.271h-.156c-.16 0-.271.112-.271.271s.111.271.271.271zm1.792 0h.156a.26.26 0 0 0 .271-.271c0-.159-.111-.271-.271-.271h-.156a.26.26 0 1 0 0 .542zm-.857 0h.156c.11 0 .271-.105.271-.271s-.112-.271-.271-.271h-.156a.26.26 0 1 0 0 .542zm-9.237-11.154h3.196c.107 0 .271-.1.271-.232v-3.354c0-.16-.112-.271-.271-.271h-3.196a.26.26 0 0 0-.271.271v3.315a.26.26 0 0 0 .271.271zm.271-.542v-2.773h2.654v2.773h-2.654z"/><use xlink:href="#B"/><path d="M22.406 12.457h-3.469c-.16 0-.271.112-.271.271s.111.271.271.271h3.469c.16 0 .271-.112.271-.271s-.111-.271-.271-.271zm0 1.092h-3.469c-.16 0-.271.112-.271.271s.111.271.271.271h3.469c.16 0 .271-.112.271-.271s-.111-.271-.271-.271zm0 1.092h-3.469c-.16 0-.271.112-.271.271s.111.271.271.271h3.469c.16 0 .271-.112.271-.271s-.111-.271-.271-.271z"/><use xlink:href="#C"/><path d="M22.406 16.864h-7.834a.26.26 0 0 0-.271.271c0 .159.111.271.271.271h7.834c.16 0 .271-.112.271-.271s-.111-.271-.271-.271zm-1.253 4.083c.1-.05.207-.198.157-.323-.044-.327-.205-.645-.358-.912a.25.25 0 0 0-.145-.119.25.25 0 0 0-.189.009c-.062.031-.168.031-.239.031a.45.45 0 0 1-.258-.095c-.086-.086-.094-.283-.022-.503.052-.113 0-.268-.109-.328-.247-.176-.547-.306-.918-.399l-.009-.002h-.009c-.184 0-.266.087-.302.159l-.004.01c-.066.199-.229.338-.395.338-.187 0-.321-.189-.4-.348-.051-.102-.202-.21-.327-.155-.367.093-.665.222-.911.397-.111.06-.163.22-.106.333.103.207.066.406-.025.497l-.009.011c-.055.083-.181.083-.248.083s-.177 0-.239-.031c-.115-.057-.276-.004-.335.11-.15.264-.274.58-.358.915l-.002.009v.009c0 .184.086.266.159.302l.01.004c.196.066.299.229.299.357s-.113.263-.309.361c-.053.026-.103.076-.135.133-.038.068-.045.137-.02.194.084.332.207.646.356.908.059.114.22.167.335.11.062-.031.168-.031.239-.031.051 0 .15.026.263.1.081.088.088.282.017.497-.052.113 0 .268.109.328.247.176.547.306.918.399l.009.002h.01c.184 0 .266-.086.302-.159.079-.159.213-.348.4-.348s.32.189.4.348a.29.29 0 0 0 .263.159h.048l.009-.002c.37-.093.671-.223.918-.399.111-.06.163-.22.106-.333-.103-.207-.066-.406.025-.497a.45.45 0 0 1 .258-.095c.07 0 .177 0 .239.031a.25.25 0 0 0 .189.009c.065-.022.117-.065.145-.119a3.66 3.66 0 0 0 .358-.915l.002-.009v-.009c0-.184-.086-.266-.159-.302l-.01-.004c-.196-.066-.299-.229-.299-.357s.113-.263.309-.361v.001zm-.851.361c0 .305.137.558.42.773-.034.143-.091.264-.151.388-.314-.06-.628.025-.831.228l-.005.005c-.203.243-.283.556-.224.865a1.82 1.82 0 0 1-.383.151c-.183-.288-.47-.458-.777-.458s-.575.166-.774.456a2.68 2.68 0 0 1-.387-.15c.062-.352-.025-.669-.232-.835-.243-.203-.555-.283-.864-.224-.062-.131-.116-.273-.15-.39.266-.206.418-.485.418-.771 0-.324-.152-.604-.419-.778.035-.141.09-.262.151-.384.347.062.662-.019.869-.227l.005-.005a1 1 0 0 0 .223-.864 1.83 1.83 0 0 1 .384-.151c.183.288.47.458.777.458s.577-.166.776-.459c.142.035.262.09.384.151-.059.31.021.622.223.865l.005.005c.203.203.517.288.83.229.061.129.115.269.149.385-.258.169-.416.447-.416.737v.001z"/><path d="M18.352 19.789a1.52 1.52 0 0 0-1.518 1.519 1.52 1.52 0 0 0 1.518 1.519 1.53 1.53 0 0 0 1.518-1.519c0-.866-.653-1.519-1.518-1.519zm.976 1.558a.98.98 0 0 1-.976.977.98.98 0 0 1-.976-.977.98.98 0 0 1 .976-.977.98.98 0 0 1 .976.977z"/></g><defs><clipPath id="A"><path fill="#fff" transform="translate(9 10)" d="M0 0h18.821v17H0z"/></clipPath><path id="B" d="M22.406 11.365h-3.469c-.16 0-.271.112-.271.271s.111.271.271.271h3.469c.16 0 .271-.112.271-.271s-.111-.271-.271-.271z"/><path id="C" d="M22.406 15.772h-7.834c-.159 0-.271.112-.271.271s.111.271.271.271h7.834c.16 0 .271-.112.271-.271s-.111-.271-.271-.271z"/></defs></svg>