<svg width="36" height="36" viewBox="0 0 36 36" fill="none" xmlns="http://www.w3.org/2000/svg">
<g clip-path="url(#clip0_62_36)">
<path d="M18.031 29C23.4771 28.966 27.9015 24.4905 27.9989 18.9171C28.0963 13.3437 23.8306 8.70922 18.3895 8.47633V7.7085C18.3908 7.45413 18.2589 7.21866 18.044 7.09062C17.8387 6.96859 17.5852 6.96988 17.3807 7.09405L15.5042 8.21938C15.2939 8.34915 15.165 8.58246 15.165 8.83383C15.165 9.08519 15.2934 9.3185 15.5042 9.44827L17.3811 10.5736C17.5852 10.6973 17.8387 10.6986 18.044 10.577C18.2589 10.449 18.3903 10.2135 18.3895 9.95915V9.20979C23.4834 9.41045 27.4733 13.7653 27.3423 18.9811C27.2113 24.197 23.0078 28.3361 17.9105 28.2682C12.8132 28.2003 8.71591 23.9512 8.71717 18.7336C8.71717 18.5313 8.5568 18.3671 8.35907 18.3671C8.16134 18.3671 8.00098 18.5313 8.00098 18.7336C8.00727 24.4011 12.4946 28.9935 18.0314 29H18.031ZM15.8891 8.83855L17.6729 7.77037L17.6805 8.79472C17.6771 8.80761 17.6746 8.8205 17.6729 8.8334C17.675 8.84843 17.6775 8.86304 17.6813 8.87722L17.6893 9.90845L15.8891 8.83812V8.83855Z" fill="#EC1F27"/>
<path d="M8.4111 17.6297C8.42915 17.6327 8.44763 17.634 8.4661 17.6336C8.64325 17.6336 8.79397 17.5004 8.81999 17.3208C8.83721 17.2022 8.85568 17.0845 8.87793 16.9672C8.91109 16.7695 8.78263 16.5817 8.59036 16.5448C8.39809 16.5083 8.21211 16.6363 8.17349 16.8327C8.1504 16.9586 8.12941 17.0853 8.11136 17.2125C8.08239 17.4123 8.21631 17.5984 8.4111 17.6289V17.6297Z" fill="#EC1F27"/>
<path d="M8.78842 15.7798C8.87784 15.8125 8.97649 15.8069 9.06255 15.7652C9.14819 15.7235 9.21452 15.6483 9.24601 15.5564C9.28715 15.4378 9.33039 15.3201 9.37573 15.2032C9.42317 15.0816 9.40385 14.9432 9.32451 14.8401C9.24517 14.737 9.11839 14.6854 8.9916 14.7039C8.86482 14.7224 8.75777 14.8092 8.70991 14.9308C8.66206 15.0562 8.61588 15.183 8.57054 15.311C8.53863 15.4026 8.54367 15.5035 8.58481 15.5912C8.62553 15.6788 8.699 15.7467 8.78842 15.779V15.7798Z" fill="#EC1F27"/>
<path d="M9.57186 13.9137C9.65288 13.9644 9.7507 13.9798 9.84306 13.9571C9.93541 13.9343 10.0152 13.8746 10.0647 13.7912C10.1365 13.6717 10.21 13.554 10.2851 13.438C10.3955 13.2696 10.3514 13.0418 10.1869 12.9293C10.0223 12.8167 9.79982 12.8614 9.68983 13.0298C9.60796 13.1548 9.52904 13.2816 9.45264 13.4101C9.34978 13.5828 9.40352 13.8084 9.57228 13.9137H9.57186Z" fill="#EC1F27"/>
<path d="M10.8665 12.4495C10.9677 12.4495 11.0638 12.4057 11.1318 12.3292C11.2233 12.2256 11.3173 12.1247 11.4135 12.0254C11.5529 11.8815 11.552 11.6494 11.4114 11.5068C11.2708 11.3641 11.0441 11.365 10.9047 11.5089C10.801 11.6159 10.6994 11.7251 10.6007 11.8368C10.5054 11.9442 10.4811 12.0989 10.5386 12.2317C10.5961 12.3644 10.7246 12.4499 10.8665 12.4499V12.4495Z" fill="#EC1F27"/>
<path d="M12.299 11.1252C12.3758 11.1247 12.4502 11.099 12.5114 11.0517C12.6072 10.9799 12.7033 10.9103 12.8003 10.8424C12.964 10.7286 13.0068 10.5008 12.8956 10.3333C12.7843 10.1657 12.5618 10.1219 12.3981 10.2357C12.2923 10.3092 12.1882 10.3844 12.0862 10.4622C11.9602 10.5558 11.9078 10.7221 11.9565 10.8734C12.0052 11.0246 12.1437 11.1265 12.2994 11.1256L12.299 11.1252Z" fill="#EC1F27"/>
<path d="M13.793 10.1991C13.8472 10.1991 13.9009 10.1866 13.9496 10.1626C14.0453 10.1153 14.1406 10.0693 14.2363 10.0255C14.353 9.97224 14.4332 9.8588 14.4467 9.72861C14.4601 9.59842 14.4043 9.4708 14.3006 9.39389C14.1969 9.31698 14.0613 9.3028 13.9442 9.35608C13.8405 9.40377 13.7376 9.45233 13.6356 9.5026C13.4849 9.57736 13.4051 9.74837 13.4429 9.91552C13.4807 10.0822 13.6259 10.2 13.7934 10.1995L13.793 10.1991Z" fill="#EC1F27"/>
<path d="M11.9412 24.2337H24.1211C24.3188 24.2337 24.4792 24.0696 24.4792 23.8672C24.4792 23.6648 24.3188 23.5007 24.1211 23.5007H23.0464V15.8008C23.0464 15.3957 22.7257 15.0674 22.3298 15.0674H21.6132C21.2173 15.0674 20.8966 15.3957 20.8966 15.8008V23.5007H20.1799V17.2673C20.1799 16.8622 19.8592 16.5339 19.4633 16.5339H18.7467C18.3509 16.5339 18.0301 16.8622 18.0301 17.2673V23.5007H17.3135V18.7343C17.3135 18.3291 16.9928 18.0008 16.5969 18.0008H15.8803C15.4844 18.0008 15.1637 18.3291 15.1637 18.7343V23.5007H14.4471V20.9342C14.4471 20.529 14.1263 20.2008 13.7305 20.2008H13.0139C12.618 20.2008 12.2972 20.529 12.2972 20.9342V23.5007H11.9391C11.7414 23.5007 11.5811 23.6648 11.5811 23.8672C11.5811 24.0696 11.7414 24.2337 11.9391 24.2337H11.9412ZM21.6136 15.8004H22.3302V23.5003H21.6136V15.8004ZM18.7476 17.2669H19.4642V23.5003H18.7476V17.2669ZM15.8816 18.7334H16.5982V23.4998H15.8816V18.7334ZM13.0155 20.9334H13.7321V23.4998H13.0155V20.9334Z" fill="#EC1F27"/>
<path d="M12.3494 18.5543C12.414 18.6656 12.5307 18.7335 12.6571 18.7335C12.7213 18.7335 12.7847 18.7158 12.8397 18.6819L21.7765 13.2512L21.6237 13.8777C21.6006 13.9722 21.6153 14.0719 21.664 14.1552C21.7127 14.2386 21.7921 14.2987 21.8844 14.3224C21.9126 14.3297 21.9419 14.3336 21.9713 14.3336C22.1355 14.3336 22.2786 14.2188 22.3185 14.056L22.6766 12.5895C22.6997 12.495 22.685 12.3953 22.6363 12.3119C22.5876 12.2286 22.5083 12.1684 22.4159 12.1448L20.9831 11.7782C20.8576 11.743 20.7237 11.78 20.6326 11.8749C20.5415 11.9699 20.5079 12.1078 20.5448 12.2354C20.5818 12.363 20.6829 12.4601 20.8097 12.4894L21.3828 12.6359L12.474 18.0516C12.3922 18.1014 12.3334 18.1822 12.3099 18.2763C12.2864 18.3704 12.3007 18.4705 12.3494 18.5539V18.5543Z" fill="#EC1F27"/>
</g>
<rect x="0.5" y="0.5" width="35" height="35" stroke="#F7F7F7"/>
<defs>
<clipPath id="clip0_62_36">
<rect width="20" height="22" fill="white" transform="translate(8 7)"/>
</clipPath>
</defs>
</svg>
