<svg xmlns="http://www.w3.org/2000/svg" width="36" height="36" fill="none" xmlns:v="https://vecta.io/nano"><path stroke="#f7f7f7" d="M.5.5h35v35H.5z"/><g clip-path="url(#A)" fill="#038eb0"><path d="M10.8 10.2h.6v.6h-.6v-.6zm1.2 0h.6v.6H12v-.6zm1.2 0h.6v.6h-.6v-.6zm-2.1 6.6h4.8a.3.3 0 0 0 .3-.3v-3a.3.3 0 0 0-.3-.3h-4.8a.3.3 0 0 0-.3.3v3a.3.3 0 0 0 .3.3zm.3-3h4.2v2.4h-4.2v-2.4zm7.2-.3h4.8v.6h-4.8v-.6zm-1.2 1.2h5.4v.6h-5.4v-.6zm0 1.2h4.2v.6h-4.2v-.6zM12 18h7.8v.6H12V18zm-1.2 1.2h7.8v.6h-7.8v-.6zm0 1.2h6.6v.6h-6.6v-.6zm0 1.2h6.6v.6h-6.6v-.6zm0 1.2h6.6v.6h-6.6v-.6zm0-4.8h.6v.6h-.6V18zm14.7-7.2h-.3v-.3A1.5 1.5 0 0 0 23.7 9H10.5A1.5 1.5 0 0 0 9 10.5v13.2a1.5 1.5 0 0 0 1.5 1.5h.3v.3a1.5 1.5 0 0 0 1.5 1.5h13.2a1.5 1.5 0 0 0 1.5-1.5V12.3a1.5 1.5 0 0 0-1.5-1.5zm-.537 4.662l1.275 1.275-.849.849-1.275-1.275.849-.849zm-5.424 6.033l.237-.615 1.044 1.044-.615.237-.666-.666zm.054.9l-.471.183.183-.471.288.288zm.915-1.629l-.423-.423 3.606-3.606.423.423-3.606 3.606zm4.032-3.18l.423.423-3.606 3.606-.423-.423 3.606-3.606zM9.6 10.5c.002-.496.404-.899.9-.9h13.2c.497.002.899.404.9.9v.9h-15v-.9zm.9 14.1c-.496-.002-.899-.404-.9-.9V12h15v2.979l-5.151 5.151c-.03.03-.054.066-.069.105l-1.059 2.757c-.045.111-.018.237.066.321a.3.3 0 0 0 .213.087.28.28 0 0 0 .108-.021l2.757-1.059c.039-.015.075-.039.105-.069l3.03-3.03V23.7c-.002.497-.404.899-.9.9H10.5zm15.9.9c-.002.497-.403.898-.9.9H12.3a.9.9 0 0 1-.9-.9v-.3h12.3a1.5 1.5 0 0 0 1.5-1.5v-5.079l1.2-1.2V25.5zm0-9.45l-1.2-1.2V13.8h1.2v2.25zm0-2.85h-1.2v-1.8h.3c.497.002.898.403.9.9v.9zm-9 .3h.6v.6h-.6v-.6z"/></g><defs><clipPath id="A"><path fill="#fff" transform="translate(9 9)" d="M0 0h18v18H0z"/></clipPath></defs></svg>