<svg width="36" height="36" viewBox="0 0 36 36" fill="none" xmlns="http://www.w3.org/2000/svg">
<g clip-path="url(#clip0_62_66)">
<path d="M12.0376 19.3052C11.9667 19.7282 12.1071 20.1637 12.4128 20.4691L15.5306 23.5869C15.7804 23.8367 16.1259 23.9802 16.4777 23.9802C16.55 23.9802 16.623 23.9742 16.6949 23.9621C16.7378 23.955 16.7803 23.9472 16.8232 23.9394L16.8948 23.9263L16.9072 23.9979L17.2537 26.2362C17.3008 26.5409 17.4975 26.7971 17.7792 26.9219C17.8954 26.9732 18.0184 26.9995 18.1441 26.9995C18.3203 26.9995 18.4917 26.9477 18.6402 26.8496L21.3817 25.0372C21.7293 24.8076 21.9468 24.4373 21.9787 24.022L22.1864 21.3351L22.2299 21.2993C22.2406 21.2908 22.2508 21.2823 22.2615 21.2735C23.6582 20.1084 24.8679 18.6496 25.5812 17.2706C26.9808 14.5646 27.0573 11.7335 26.9787 10.2867C26.9415 9.60217 26.3969 9.05792 25.7127 9.02071C24.2663 8.94169 21.4352 9.01823 18.7288 10.4182C17.3497 11.1315 15.891 12.3415 14.7259 13.7379L14.6643 13.813L11.9774 14.0207C11.5621 14.0529 11.1922 14.2705 10.9622 14.6181L9.14982 17.3595C8.97974 17.6168 8.95281 17.9385 9.07753 18.2206C9.20226 18.5026 9.45879 18.6989 9.76316 18.7464L12.0734 19.1043L12.0592 19.1822C12.0518 19.2233 12.0443 19.2644 12.0376 19.3055V19.3052ZM16.5429 23.054C16.521 23.0575 16.499 23.0593 16.477 23.0593C16.3682 23.0593 16.2616 23.0154 16.1819 22.9356L13.0641 19.8179C12.9684 19.7222 12.9241 19.5872 12.9461 19.4572C13.0347 18.9285 13.1754 18.3931 13.3642 17.8659L13.4021 17.7606L18.2384 22.5969L18.1332 22.6344C17.6006 22.8251 17.0656 22.9661 16.5429 23.0536V23.054ZM21.0606 23.9519C21.0507 24.0819 20.9827 24.1974 20.8739 24.2693L18.1594 26.064L17.7951 23.712L17.8547 23.6946C18.958 23.37 20.0448 22.8527 21.0844 22.1568L21.2056 22.0757L21.0606 23.9519ZM15.4332 14.3286C16.5224 13.0229 17.8777 11.8961 19.1519 11.237C21.6634 9.93807 24.3091 9.86791 25.6623 9.94126C25.8767 9.95295 26.0471 10.1234 26.0588 10.3378C26.1325 11.6909 26.0624 14.3364 24.763 16.8482C24.104 18.122 22.9772 19.4777 21.6715 20.5669C20.8838 21.2239 20.0512 21.7685 19.1969 22.1852L19.1515 22.2071L13.7926 16.8482L13.8149 16.8029C14.2352 15.9447 14.7798 15.1124 15.4335 14.3286H15.4332ZM9.93608 17.8411L11.7308 15.1265C11.8027 15.0178 11.9182 14.9497 12.0482 14.9398L13.9244 14.7949L13.8433 14.9161C13.147 15.956 12.6297 17.0428 12.3055 18.1458L12.2881 18.2053L9.93608 17.8411Z" fill="#EC1F27"/>
<path d="M23.1852 12.8146C22.6976 12.3267 22.0478 12.0581 21.3561 12.0581C20.6645 12.0581 20.015 12.3267 19.5271 12.8146C19.0385 13.3032 18.7695 13.9527 18.7695 14.6437C18.7695 15.3346 19.0385 15.9841 19.5271 16.4727C20.0146 16.9603 20.6641 17.2292 21.3558 17.2292C22.0474 17.2292 22.6969 16.9606 23.1848 16.4727C23.6735 15.9841 23.9424 15.3346 23.9424 14.6437C23.9424 13.9527 23.6735 13.3032 23.1848 12.8146H23.1852ZM22.5336 15.8211C22.2196 16.135 21.8012 16.3079 21.3561 16.3079C20.9111 16.3079 20.4926 16.135 20.1787 15.8211C19.8641 15.5065 19.6908 15.0883 19.6908 14.6437C19.6908 14.199 19.8641 13.7805 20.1787 13.4662C20.4926 13.1523 20.9108 12.9794 21.3561 12.9794C21.8015 12.9794 22.2196 13.1523 22.5336 13.4662C22.8482 13.7809 23.0211 14.199 23.0211 14.6437C23.0211 15.0883 22.8479 15.5068 22.5336 15.8211Z" fill="#EC1F27"/>
<path d="M11.2063 21.1523C11.0833 21.1523 10.9674 21.2002 10.8806 21.2873L9.14548 23.0225C8.96583 23.2021 8.96583 23.4945 9.14548 23.6738C9.23264 23.7609 9.34815 23.8088 9.47111 23.8088C9.59406 23.8088 9.70993 23.7609 9.79674 23.6738L11.5319 21.9386C11.6191 21.8514 11.6669 21.7359 11.6669 21.613C11.6669 21.49 11.6191 21.3742 11.5319 21.2873C11.4447 21.2005 11.3292 21.1523 11.2063 21.1523Z" fill="#EC1F27"/>
<path d="M13.257 23.2033C13.257 23.0804 13.2092 22.9645 13.122 22.8777C13.0349 22.7905 12.9193 22.7427 12.7964 22.7427C12.6734 22.7427 12.5576 22.7905 12.4708 22.8777L9.13473 26.2137C8.95509 26.3933 8.95509 26.6857 9.13473 26.8653C9.2219 26.9525 9.33741 27.0003 9.46036 27.0003C9.58332 27.0003 9.69918 26.9525 9.78599 26.8653L13.122 23.5293C13.2092 23.4421 13.257 23.3266 13.257 23.2037V23.2033Z" fill="#EC1F27"/>
<path d="M14.8478 24.7936C14.8478 24.6707 14.8 24.5548 14.7128 24.468C14.6257 24.3812 14.5101 24.333 14.3872 24.333C14.2642 24.333 14.1484 24.3808 14.0616 24.468L12.3264 26.2032C12.2392 26.2903 12.1914 26.4058 12.1914 26.5288C12.1914 26.6517 12.2392 26.7676 12.3264 26.8544C12.4136 26.9416 12.5291 26.9894 12.652 26.9894C12.775 26.9894 12.8909 26.9416 12.9777 26.8544L14.7128 25.1193C14.8 25.0321 14.8478 24.9166 14.8478 24.7936Z" fill="#EC1F27"/>
</g>
<rect x="0.5" y="0.5" width="35" height="35" stroke="#F7F7F7"/>
<defs>
<clipPath id="clip0_62_66">
<rect width="18" height="18" fill="white" transform="translate(9 9)"/>
</clipPath>
</defs>
</svg>
