<svg xmlns="http://www.w3.org/2000/svg" width="58" height="58" fill="none" xmlns:v="https://vecta.io/nano"><g clip-path="url(#A)" fill="#515151"><path d="M34.35 14.163a13.14 13.14 0 0 1-1.524 3.085l-.046.069-.08-.023a13.15 13.15 0 0 0-3.732-.547c-2.956 0-5.894 1.007-8.411 2.941-3.561 2.739-5.632 6.924-5.558 11.2.017 7.764 6.294 14.095 13.986 14.112 4.725.075 9.101-2.371 11.749-6.555 2.642-4.178 2.996-9.226.942-13.496a.43.43 0 0 0-.263-.23c-.114-.04-.24-.029-.348.023a.46.46 0 0 0-.217.599 13.33 13.33 0 0 1 .776 8.927l-.023.086h-3.367c-.565-.023-.548-.57-.536-.927v-.219a1.84 1.84 0 0 0-.542-1.301 1.8 1.8 0 0 0-1.278-.53h-.017c-.987.006-1.797.823-1.809 1.824v1.439a.54.54 0 0 1-.536.541c-.799 0-1.449.656-1.455 1.462v.748a.54.54 0 0 1-.536.541h-.747c-.799 0-1.449.656-1.455 1.462v4.673h-.114c-1.763.035-3.492-.288-5.13-.961l-.171-.069.143-.121a10.23 10.23 0 0 0 1.335-1.393 2.44 2.44 0 0 0-.08-2.555 6.56 6.56 0 0 0-.285-.432c-.799-1.191-.924-1.433-.901-1.548 0-.253.154-.489.394-.587 1.98-.909 1.912-2.262 1.695-2.987a3.45 3.45 0 0 1-.148-1.025c-.046-.489.126-.955.291-1.404.137-.368.262-.719.28-1.088 0-.512-.205-1.001-.576-1.364-.365-.363-.845-.558-1.352-.558a1.73 1.73 0 0 0-.354.035c-.063.011-.12.029-.171.052-.194.075-.399-.017-.468-.202-.011-.029-.017-.057-.023-.092-.04-.132.103-.294.394-.581.057-.058.109-.109.126-.132a2.14 2.14 0 0 0 .576-1.531 2.09 2.09 0 0 0-.662-1.473c-.628-.593-1.541-.742-2.322-.374l-5.198 2.964.097-.288c2.134-6.187 8.993-9.911 15.298-8.299l.177.046-.12.138a7 7 0 0 1-1.809 1.525l-2.796 1.381a.87.87 0 0 0-.462.973l.017.086-.08.04c-.399.213-.696.564-.827 1.001a1.72 1.72 0 0 0 .114 1.301 1.69 1.69 0 0 0 2.254.731l.063-.035.057.046a.88.88 0 0 0 1.01.058l.114-.069.051.127c1.7 4.046 2.807 4.765 3.315 4.835.285.04.542-.092.776-.391l.862-1.514c.268-.61-.012-1.335-.622-1.611-.023-.012-.046-.017-.063-.029l-.029-.017c-.24-.178-.394-.455-.428-.754-.068-.38-.257-.737-.536-1.019a1.63 1.63 0 0 1-.359-.915v-.092l.08-.029a6.51 6.51 0 0 1 1.192-.27.46.46 0 0 0 .303-.178.48.48 0 0 0 .091-.34c-.034-.247-.257-.42-.502-.397-1.153.081-2.419.731-3.538 1.301l-1.056.524-.103.046-1.255-2.584 2.773-1.37a9.85 9.85 0 0 0 3.561-3.896l.143-.276.074.305a15.01 15.01 0 0 0 2.853 5.865l.171.213-.274-.029c-.091-.012-.194-.029-.308-.046-.342-.058-.77-.132-.993.029-.091.069-.143.167-.16.317a.48.48 0 0 0 .103.334c.08.092.188.15.308.161 1.204.098 1.912.311 2.539.495.405.121.788.236 1.255.305.508-.058.901-.299 1.141-.725.702-1.266-.011-3.96-1.027-6.072-.086-.127-.177-.322-.28-.535-.211-.449-.474-1.013-.805-1.117a.46.46 0 0 0-.36.052.45.45 0 0 0-.194.282c-.023.109-.011.224.046.322l.034.017v.04a15.51 15.51 0 0 1 .742 1.341c1.141 2.366 1.37 4.293 1.101 5.088-.034.132-.12.259-.24.345l-.028.023h-.034c-1.193 0-2.705-2.037-3.686-4.069-.896-1.859-1.666-4.38-.884-5.364l.04-.029c.257-.127.862.098 1.632.886a.45.45 0 0 0 .645 0 .46.46 0 0 0 .137-.322.47.47 0 0 0-.131-.328c-1.016-1.042-1.969-1.422-2.682-1.071-.388.213-.668.593-.759 1.036l.011-.011zm-4.108 25.232c0-.299.245-.541.542-.541h.747c.799 0 1.449-.656 1.449-1.462v-.748c0-.144.057-.282.154-.38.103-.104.234-.161.377-.161.81 0 1.455-.656 1.461-1.462v-1.439a.91.91 0 0 1 .907-.909.89.89 0 0 1 .639.271c.285.23.274.662.262 1.013v.23c0 .812.651 1.468 1.449 1.473h3.081l-.057.155c-1.735 4.748-5.912 8.035-10.899 8.576l-.126.011V39.4l.011-.006zM22.219 24.5c.303-.132.622-.138.919-.023a1.16 1.16 0 0 1 .651.633 1.2 1.2 0 0 1-.217 1.289l-.069.069c-.359.368-.77.788-.719 1.306.046.719.656 1.266 1.358 1.22a1.09 1.09 0 0 0 .382-.086 1.01 1.01 0 0 1 1.176.829c.034.201 0 .409-.086.599-.496 1.042-.599 2.227-.274 3.344.234.783-.16 1.399-1.204 1.882-.582.259-.953.858-.919 1.496-.011.426.479 1.14.873 1.709.177.259.348.507.462.708.611 1.186 0 1.732-.839 2.492a17.27 17.27 0 0 0-.633.587l-.057.058-.074-.04c-4.337-2.279-7.03-6.757-7.036-11.689a13.38 13.38 0 0 1 .331-2.935l.011-.052 5.963-3.407v.012zm9.609-.242l.023.155a2.05 2.05 0 0 0 .559 1.14 1.1 1.1 0 0 1 .285.547 2.28 2.28 0 0 0 1.198 1.611l.108.052-.873 1.531-.103-.075c-.725-.541-1.963-3.062-2.437-4.23l-.04-.098 1.278-.633zm-3.732.201l-.126.04a.73.73 0 0 1-.245.04.78.78 0 0 1-.702-.437c-.171-.351-.057-.783.268-1.001l.108-.075.69 1.427.006.006zm10.105-4.058c.24-.034.422-.184.548-.432.257-.518.188-1.306-.04-1.727-.183-.541-1.033-1.128-1.586-1.128h-.068c-.257.023-.405.178-.445.483 0 .236.205.443.456.443a1.08 1.08 0 0 1 .719.432 1.07 1.07 0 0 1 .194.806c-.017.127-.057.247-.12.357a.47.47 0 0 0-.097.357c.017.121.08.23.177.305a.43.43 0 0 0 .263.092v.011z"/></g><defs><clipPath id="A"><path fill="#fff" transform="translate(15 13)" d="M0 0h28v32H0z"/></clipPath></defs></svg>