<svg xmlns="http://www.w3.org/2000/svg" width="58" height="58" fill="none" xmlns:v="https://vecta.io/nano"><path d="M44.867 42.757l-2.11 2.11a.45.45 0 0 1-.321.133.45.45 0 0 1-.321-.133c-.177-.177-.177-.464 0-.641l1.336-1.336h-8.478c-.251 0-.453-.203-.453-.453s.203-.453.453-.453h8.478l-1.336-1.336c-.177-.177-.177-.464 0-.641s.464-.177.641 0l2.11 2.11c.177.177.177.464 0 .641zm-6.565-17.333h6.245c.251 0 .453.203.453.453v6.245c0 .251-.203.453-.453.453h-6.245c-.251 0-.453-.203-.453-.453v-6.245c0-.251.203-.453.453-.453zm.453 6.245h5.338v-5.338h-5.338v5.338zm-25.695.68c-.081-.141-.081-.313 0-.453l3.605-6.244c.081-.141.231-.227.393-.227s.312.086.393.227l3.605 6.244c.081.141.081.313 0 .453s-.231.227-.392.227h-7.211c-.162 0-.312-.086-.393-.227zm1.178-.68h5.64l-2.82-4.884-2.82 4.884h-.001zm11.185-15.093A3.58 3.58 0 0 1 29 13a3.58 3.58 0 0 1 3.576 3.576A3.58 3.58 0 0 1 29 20.151a3.58 3.58 0 0 1-3.576-3.576zm.907 0c0 1.472 1.197 2.669 2.669 2.669s2.669-1.197 2.669-2.669-1.197-2.669-2.669-2.669-2.669 1.197-2.669 2.669zM26.006 29A3 3 0 0 1 29 26.006 3 3 0 0 1 31.994 29 3 3 0 0 1 29 31.994 3 3 0 0 1 26.006 29zm.907 0A2.09 2.09 0 0 0 29 31.087 2.09 2.09 0 0 0 31.087 29 2.09 2.09 0 0 0 29 26.913 2.09 2.09 0 0 0 26.913 29zm-2.346-3.685l.748-.748a.8.8 0 0 1 1.132 0c.212.212.503.27.781.155s.443-.362.443-.661a.8.8 0 0 1 .801-.801h1.057a.8.8 0 0 1 .801.801c0 .299.166.547.442.661s.569.057.781-.155a.8.8 0 0 1 1.132 0l.747.748a.8.8 0 0 1 0 1.132c-.212.212-.269.503-.155.781s.362.443.661.443a.8.8 0 0 1 .801.801v1.057a.8.8 0 0 1-.801.801c-.299 0-.547.165-.661.442s-.057.569.155.781c.151.151.235.352.235.566s-.084.415-.235.566l-.747.748a.8.8 0 0 1-1.132 0c-.212-.212-.503-.27-.781-.155s-.442.362-.442.661a.8.8 0 0 1-.801.801h-1.057a.8.8 0 0 1-.801-.801c0-.3-.165-.547-.442-.662s-.569-.057-.781.155a.8.8 0 0 1-1.132 0l-.748-.748a.8.8 0 0 1 0-1.132c.212-.212.269-.503.155-.78s-.362-.442-.661-.442a.8.8 0 0 1-.801-.801v-1.057a.8.8 0 0 1 .801-.801c.299 0 .547-.166.661-.443s.057-.569-.154-.781a.8.8 0 0 1 0-1.132h-.001zm.992 2.26c-.242.586-.77.961-1.393 1v.852c.622.038 1.151.414 1.393 1s.135 1.224-.279 1.692l.602.602c.468-.414 1.106-.521 1.692-.279s.961.77.999 1.394h.852c.038-.623.414-1.151 1-1.393s1.224-.135 1.692.278l.602-.602c-.413-.468-.521-1.106-.278-1.692s.77-.961 1.393-1v-.852c-.623-.038-1.151-.414-1.393-1s-.135-1.224.278-1.692l-.602-.603c-.468.413-1.106.521-1.691.279s-.961-.77-1-1.393h-.852c-.038.622-.414 1.151-1 1.393s-1.224.135-1.692-.279l-.602.603c.413.468.521 1.106.279 1.692v-.001zm15.99 7.389l.499 1.345c.068.183.241.296.425.296.053 0 .106-.009.157-.029.234-.087.354-.348.268-.583l-.897-2.418-.012-.028c-.096-.216-.345-.323-.571-.24L39 34.206c-.235.087-.354.348-.268.583s.348.354.583.267l1.437-.534c-2.123 4.502-6.728 7.462-11.765 7.462H13.453c-.251 0-.453.203-.453.453s.203.454.453.454h15.536c2.884 0 5.65-.873 7.999-2.526 1.977-1.391 3.537-3.243 4.562-5.401v-.001zm-24.702-1.385c-.088-.234-.35-.353-.584-.264s-.352.35-.264.584c.636 1.687 1.583 3.215 2.814 4.543s2.674 2.381 4.302 3.144a.45.45 0 0 0 .192.043c.17 0 .334-.097.411-.261.106-.227.008-.497-.218-.603a13.11 13.11 0 0 1-6.652-7.186h.001zM34.206 19c.087.235.349.354.583.267s.354-.348.267-.583l-.534-1.438c2.999 1.411 5.372 3.94 6.581 7.045.07.18.241.289.422.289.055 0 .11-.01.164-.031.233-.091.349-.354.258-.587-1.286-3.303-3.803-5.995-6.985-7.51l1.345-.499c.235-.088.354-.348.268-.583s-.348-.354-.583-.268l-2.418.897c-.113.042-.204.127-.255.236s-.055.234-.013.347L34.206 19zm-18.206 5.425c.068.183.241.296.425.296.053 0 .106-.009.158-.029L19 23.795c.235-.087.354-.348.267-.583s-.348-.354-.583-.267l-1.438.534c1.411-2.999 3.939-5.372 7.044-6.581.233-.091.349-.354.258-.587s-.354-.348-.587-.258c-3.303 1.286-5.995 3.803-7.51 6.986l-.499-1.345c-.087-.235-.348-.354-.583-.268s-.354.348-.268.583l.897 2.418h.001z" fill="#515151"/></svg>