<svg xmlns="http://www.w3.org/2000/svg" width="58" height="58" fill="none" xmlns:v="https://vecta.io/nano"><path fill="#fff" d="M0 0h58v58H0z"/><g clip-path="url(#A)" fill="#515151"><path d="M39.017 42.659l-1.147.633c-3.28 1.818-6.997 3.879-10.57 3.56l-12.652-1.13c-.016-.001-.033-.002-.05-.002h-3.483v-6.261h3.482c.132 0 .26-.047.36-.132.01-.008 1.006-.845 2.524-1.634a.56.56 0 0 0 .238-.752c-.142-.273-.479-.38-.752-.237-1.279.664-2.207 1.357-2.567 1.64h-3.844c-.308 0-.557.249-.557.558v7.377a.56.56 0 0 0 .557.558h4.015L27.2 47.964a9.66 9.66 0 0 0 .854.038c3.621 0 7.184-1.976 10.355-3.733l1.141-.629a.56.56 0 0 0 .223-.756c-.147-.271-.486-.37-.756-.223v-.002zm8.553-6.178a2.12 2.12 0 0 0-2.518-.684c-.023-.357-.143-.704-.355-1.001-.557-.781-1.618-1.032-2.466-.585l-1.326.699a1.92 1.92 0 0 0-.272-.888 1.91 1.91 0 0 0-2.546-.692l-.992.537a1.97 1.97 0 0 0-.382-1.078 1.96 1.96 0 0 0-2.503-.579l-7.158 3.754c-.805-.309-3.371-1.144-6.369-.586a11.85 11.85 0 0 0-1.584.414.56.56 0 0 0-.353.706.56.56 0 0 0 .706.352c.485-.162.968-.289 1.434-.376a11.21 11.21 0 0 1 5.966.613c.072.032.15.049.229.049h7.45c.529 0 .96.432.96.963 0 .484-.361.894-.839.955l-9.443 1.196a.56.56 0 0 0-.488.555.56.56 0 0 0 .491.552l4.01.483a18.32 18.32 0 0 0 11.167-2.192l5.011-2.786a1.01 1.01 0 0 1 1.277.289 1.03 1.03 0 0 1-.325 1.508l-5.377 2.93c-.643.338-.092 1.336.534.98l5.377-2.93a2.13 2.13 0 0 0 1.063-1.423c.131-.608-.008-1.241-.382-1.737l.002.001zm-12.841-3.283a.85.85 0 0 1 1.086.252c.31.4.169 1.034-.281 1.265l-2.411 1.307h-3.776l5.382-2.823v-.001zm.507 2.946l3.382-1.833c.374-.203.84-.076 1.06.289.24.377.09.922-.31 1.122l-2.933 1.546a2.09 2.09 0 0 0-1.198-1.123h-.001zm4.613 2.53c-3.067 1.706-6.513 2.432-9.993 2.112l4.937-.625a2.08 2.08 0 0 0 1.784-1.709l6.173-3.254c.357-.189.804-.082 1.038.246.284.378.152.968-.267 1.188l-3.673 2.042v.001zm-16.862-13.52a4.17 4.17 0 0 0 1.801-.405.56.56 0 0 0 .264-.743.56.56 0 0 0-.743-.264c-.414.197-.859.297-1.322.297-1.7 0-3.082-1.383-3.082-3.082s1.383-3.082 3.082-3.082 3.082 1.383 3.082 3.082a3.09 3.09 0 0 1-.381 1.487.56.56 0 0 0 .219.758.56.56 0 0 0 .758-.219 4.2 4.2 0 0 0 .52-2.026c0-2.315-1.883-4.198-4.198-4.198s-4.198 1.883-4.198 4.198 1.883 4.198 4.198 4.198l-.001.001zm-8.708-2.54l1.156.174a7.66 7.66 0 0 0 .917 2.213l-.695.941a1.1 1.1 0 0 0 .108 1.441l.796.796a1.1 1.1 0 0 0 1.441.108l.94-.695a7.67 7.67 0 0 0 2.213.917l.174 1.156a1.1 1.1 0 0 0 1.096.943h1.125a1.1 1.1 0 0 0 1.095-.943l.174-1.156a7.66 7.66 0 0 0 2.213-.917l.941.695a1.1 1.1 0 0 0 1.441-.108l.796-.796a1.1 1.1 0 0 0 .108-1.441l-.695-.94a7.67 7.67 0 0 0 .917-2.213l1.156-.174a1.1 1.1 0 0 0 .943-1.095v-.005h3.31v7.109c0 .717.583 1.301 1.3 1.301h2.382a2.55 2.55 0 0 0 5.032-.558 2.55 2.55 0 0 0-5.032-.558H37.25c-.102 0-.185-.083-.185-.185v-7.109h2.568a2.55 2.55 0 0 0 5.032-.558 2.55 2.55 0 0 0-5.032-.558h-2.568V13.29c0-.102.083-.185.185-.185h2.382a2.55 2.55 0 0 0 5.032-.558A2.55 2.55 0 0 0 42.118 10a2.55 2.55 0 0 0-2.485 1.989h-2.382a1.3 1.3 0 0 0-1.3 1.3v7.109h-3.31v-.005a1.1 1.1 0 0 0-.943-1.096l-1.156-.174a7.69 7.69 0 0 0-.917-2.213l.695-.94a1.1 1.1 0 0 0-.108-1.441l-.796-.796a1.1 1.1 0 0 0-1.441-.108l-.94.695a7.67 7.67 0 0 0-2.213-.917l-.174-1.156a1.1 1.1 0 0 0-1.095-.943h-1.125a1.1 1.1 0 0 0-1.096.943l-.174 1.156a7.66 7.66 0 0 0-2.213.917l-.94-.695a1.1 1.1 0 0 0-1.441.108l-.796.796a1.1 1.1 0 0 0-.108 1.441l.695.94a7.67 7.67 0 0 0-.917 2.213l-1.156.174a1.1 1.1 0 0 0-.943 1.096v1.125a1.1 1.1 0 0 0 .943 1.095h-.001zm27.84 5.32c.79 0 1.432.642 1.432 1.432s-.642 1.432-1.432 1.432-1.432-.642-1.432-1.432.642-1.432 1.432-1.432zm0-8.409c.79 0 1.432.642 1.432 1.432s-.642 1.432-1.432 1.432-1.432-.642-1.432-1.432.642-1.432 1.432-1.432zm0-8.41c.79 0 1.432.642 1.432 1.432s-.642 1.432-1.432 1.432-1.432-.642-1.432-1.432.642-1.432 1.432-1.432zM14.451 20.4l1.531-.23a.56.56 0 0 0 .465-.449 6.58 6.58 0 0 1 1.043-2.516.56.56 0 0 0-.012-.646l-.92-1.245.787-.787 1.245.92a.56.56 0 0 0 .646.012c.764-.522 1.61-.873 2.517-1.043a.56.56 0 0 0 .449-.465l.23-1.531h1.112l.23 1.531a.56.56 0 0 0 .449.465 6.58 6.58 0 0 1 2.516 1.043.56.56 0 0 0 .646-.012l1.245-.92.787.787-.92 1.245a.56.56 0 0 0-.012.646c.522.764.873 1.61 1.043 2.517a.56.56 0 0 0 .465.449l1.531.23v1.113l-1.531.23a.56.56 0 0 0-.465.449 6.59 6.59 0 0 1-1.043 2.517.56.56 0 0 0 .012.646l.92 1.245-.787.787-1.245-.92a.56.56 0 0 0-.646-.012c-.764.522-1.61.873-2.517 1.043a.56.56 0 0 0-.449.465l-.23 1.531H22.43l-.23-1.531a.56.56 0 0 0-.449-.465 6.59 6.59 0 0 1-2.517-1.043.56.56 0 0 0-.647.012l-1.245.92-.787-.787.92-1.245a.56.56 0 0 0 .012-.646c-.522-.764-.873-1.61-1.043-2.516a.56.56 0 0 0-.465-.449l-1.531-.23v-1.112l.001-.002z"/></g><defs><clipPath id="A"><path fill="#fff" transform="translate(10 10)" d="M0 0h38v38H0z"/></clipPath></defs></svg>